# xmcd
#
# Track frame offsets:
#	150
#	11871
#	24296
#	35566
#	47791
#	61301
#	74623
#	87763
#	101306
#	116338
#	129413
#	144886
#	157606
#	173596
#	187621
#	200223
#	213353
#	224621
#	236333
#	248378
#	261311
#	273951
#	286433
#	299913
#	313556
#
# Disc length: 4345 seconds
#
# Revision: 1
# Processed by: cddbd v1.5.1PL2 Copyright (c) Steve Scherf et al.
# Submitted via: audiograbber 1.83.01
#
DISCID=6410f719
DTITLE=Big Bill Broonzy - Big Bill Blues
DYEAR=1900
DGENRE=Blues
TTITLE0=House Rent Stomp
TTITLE1=I Can't Be Satisfied
TTITLE2=Tadpole Blues
TTITLE3=Police Station Blues
TTITLE4=State Street Woman
TTITLE5=Big Bill Blues
TTITLE6=Brownskin Shuffle
TTITLE7=Mr Conductor Man
TTITLE8=Friendless Blues
TTITLE9=I'll Be Back Home
TTITLE10=Serve It To Me Right
TTITLE11=Sweet To Mama
TTITLE12=The Southern Blues
TTITLE13=Little Bug
TTITLE14=My Gal Is Gone
TTITLE15=Living On Easy Street
TTITLE16=Baby I Done Got Wise
TTITLE17=Too Many Drivers
TTITLE18=Midnight Steppers
TTITLE19=I'll Never Dream Again
TTITLE20=My Little Flower
TTITLE21=I Feel So Good
TTITLE22=I'm Woke Up Now
TTITLE23=Just A Dream
TTITLE24=Roll Them Bones
EXTD=
EXTT0=
EXTT1=
EXTT2=
EXTT3=
EXTT4=
EXTT5=
EXTT6=
EXTT7=
EXTT8=
EXTT9=
EXTT10=
EXTT11=
EXTT12=
EXTT13=
EXTT14=
EXTT15=
EXTT16=
EXTT17=
EXTT18=
EXTT19=
EXTT20=
EXTT21=
EXTT22=
EXTT23=
EXTT24=
PLAYORDER=
